<svg width="612" height="203" viewBox="0 0 612 203" fill="none" xmlns="http://www.w3.org/2000/svg">
<path d="M0.421875 181.172C0.296875 181.172 0.1875 181.125 0.09375 181.031C0.03125 180.938 0 180.828 0 180.703V180.656C0.625 166 1.625 151.375 3 136.781C3.6875 129.344 4.46875 121.906 5.34375 114.469C4.21875 114.531 3.07812 114.531 1.92188 114.469C1.79688 114.469 1.6875 114.422 1.59375 114.328C1.5 114.234 1.46875 114.125 1.5 114C1.5 113.844 1.53125 113.734 1.59375 113.672C1.6875 113.578 1.79688 113.531 1.92188 113.531C3.14062 113.469 4.34375 113.375 5.53125 113.25C6.34375 106.5 7.26562 99.7812 8.29688 93.0938C8.54688 91.5 8.8125 89.9062 9.09375 88.3125C10.3125 74.8438 11.4531 61.3594 12.5156 47.8594C13.0781 40.4844 13.5781 33.1094 14.0156 25.7344C14.2344 22.0469 14.4062 18.3594 14.5312 14.6719C14.5625 14.4219 14.5781 14.1562 14.5781 13.875C14.7031 10.4688 14.7188 7.10937 14.625 3.79688V3.75C14.625 2.96875 14.8594 2.3125 15.3281 1.78125C15.8281 1.25 16.4688 0.953125 17.25 0.890625C18.0312 0.859375 18.6875 1.09375 19.2188 1.59375C19.7812 2.09375 20.0938 2.73438 20.1562 3.51562C20.1562 3.51562 20.1562 3.53125 20.1562 3.5625C20.1562 3.5625 20.1562 3.57813 20.1562 3.60938C20.1562 7.07812 20.0469 10.5 19.8281 13.875C19.8281 14.2188 19.8125 14.5781 19.7812 14.9531C19.5312 18.6719 19.25 22.375 18.9375 26.0625C18.3125 33.4688 17.625 40.8594 16.875 48.2344C16.75 49.4844 16.625 50.7344 16.5 51.9844C16.4375 52.5781 16.375 53.1719 16.3125 53.7656C16.3438 53.6406 16.375 53.5156 16.4062 53.3906C16.6875 52.2344 16.9844 51.0938 17.2969 49.9688C19.2656 42.875 21.7031 35.9219 24.6094 29.1094C26.0781 25.7344 27.75 22.4531 29.625 19.2656C31.5 16.0469 33.7188 13.0469 36.2812 10.2656C38.875 7.42188 41.9844 5.23437 45.6094 3.70312C47.4219 3.01563 49.3125 2.59375 51.2812 2.4375C53.25 2.3125 55.1875 2.40625 57.0938 2.71875C61.125 3.40625 64.625 5.1875 67.5938 8.0625C70.4375 11.0313 72.4219 14.4375 73.5469 18.2812C74.6719 22.0312 75.2656 25.8281 75.3281 29.6719C75.4219 33.4844 75.1875 37.25 74.625 40.9688C73.4062 48.4688 71.3438 55.6719 68.4375 62.5781C65.5625 69.5156 61.9844 76.0781 57.7031 82.2656C53.4531 88.4219 48.5 93.9844 42.8438 98.9531C37.125 103.922 30.7656 107.812 23.7656 110.625C19.8594 112.188 15.8281 113.281 11.6719 113.906C11.9531 114.344 12.2188 114.766 12.4688 115.172C13.0938 116.453 13.6094 117.703 14.0156 118.922C14.7031 121.016 15.3281 123.078 15.8906 125.109C15.9844 125.484 16.0938 125.859 16.2188 126.234C17.5312 131.078 19.0781 135.797 20.8594 140.391C22.6094 145.016 25.0156 149.203 28.0781 152.953C31.2344 156.734 35.1719 159.234 39.8906 160.453C41.0781 160.734 42.2656 160.938 43.4531 161.062C44.6719 161.188 45.8594 161.188 47.0156 161.062C49.3281 160.812 51.5312 160.047 53.625 158.766C57.6875 156.109 61.0938 152.656 63.8438 148.406C66.625 144.312 69.0156 139.969 71.0156 135.375C73.0781 130.812 74.8438 126.141 76.3125 121.359C76.3438 121.234 76.4062 121.141 76.5 121.078C76.625 121.016 76.75 121 76.875 121.031C77.0312 121.062 77.125 121.141 77.1562 121.266C77.2188 121.359 77.2344 121.469 77.2031 121.594C75.8594 126.469 74.2031 131.234 72.2344 135.891C70.3281 140.578 68 145.062 65.25 149.344C63.8438 151.5 62.2812 153.531 60.5625 155.438C58.8438 157.375 56.875 159.062 54.6562 160.5C52.4375 161.938 49.9688 162.859 47.25 163.266C45.9062 163.422 44.5781 163.453 43.2656 163.359C41.9531 163.266 40.6562 163.078 39.375 162.797C36.7812 162.234 34.3281 161.266 32.0156 159.891C29.7656 158.453 27.75 156.75 25.9688 154.781C22.5312 150.781 19.8281 146.391 17.8594 141.609C15.8594 136.891 14.1406 132.109 12.7031 127.266C12.6094 126.953 12.5156 126.625 12.4219 126.281C11.7656 124.219 11.0938 122.203 10.4062 120.234C9.96875 119.109 9.5 118.078 9 117.141C6.4375 138.359 3.76562 159.562 0.984375 180.75C0.953125 180.906 0.890625 181.016 0.796875 181.078C0.703125 181.172 0.578125 181.203 0.421875 181.172ZM11.9531 92.4844C11.2031 99.0469 10.4219 105.594 9.60938 112.125C9.64062 112.125 9.67188 112.141 9.70312 112.172C9.76562 112.203 9.8125 112.219 9.84375 112.219C10 112.312 10.125 112.406 10.2188 112.5C10.25 112.5 10.2812 112.516 10.3125 112.547C14.6875 111.703 18.875 110.359 22.875 108.516C29.4375 105.453 35.3594 101.438 40.6406 96.4688C45.9219 91.5625 50.5312 86.0781 54.4688 80.0156C58.4375 74.0156 61.7656 67.6562 64.4531 60.9375C67.1719 54.25 69.0625 47.375 70.125 40.3125C70.6875 36.7812 70.9531 33.25 70.9219 29.7188C70.9219 26.1875 70.4844 22.75 69.6094 19.4062C68.7656 16.0312 67.25 13.0625 65.0625 10.5C62.8125 7.96875 59.9688 6.3125 56.5312 5.53125C54.8438 5.15625 53.1406 4.96875 51.4219 4.96875C49.7031 5 48.0156 5.29688 46.3594 5.85938C43.0781 7.07812 40.1875 9 37.6875 11.625C35.1875 14.1875 33 17.0313 31.125 20.1562C29.25 23.25 27.5781 26.4687 26.1094 29.8125C23.1719 36.4688 20.6875 43.3125 18.6562 50.3438C17.4375 54.4688 16.3281 58.625 15.3281 62.8125C14.2344 72.7188 13.1094 82.6094 11.9531 92.4844ZM7.64062 104.109C7.23438 106.891 6.85938 109.656 6.51562 112.406C6.60938 112.281 6.73438 112.172 6.89062 112.078C7.04688 110.453 7.20312 108.812 7.35938 107.156C7.45312 106.156 7.54688 105.141 7.64062 104.109ZM6.1875 114.703C4.1875 130.859 2.73438 147.062 1.82812 163.312C3.45312 147.281 5.03125 131.25 6.5625 115.219C6.4375 115.062 6.3125 114.891 6.1875 114.703ZM85.0312 126.281C83.375 127.188 81.6094 127.797 79.7344 128.109C79.6406 129.422 79.625 130.719 79.6875 132C79.7812 134.406 80.4062 136.484 81.5625 138.234C82.875 139.953 84.7812 140.922 87.2812 141.141C89.6875 141.266 92 140.656 94.2188 139.312C96.4062 138 98.375 136.359 100.125 134.391C103.594 130.453 106.391 126.078 108.516 121.266C108.578 121.141 108.656 121.062 108.75 121.031C108.875 120.969 109.016 120.953 109.172 120.984C109.266 121.047 109.328 121.141 109.359 121.266C109.422 121.391 109.438 121.516 109.406 121.641C108.312 124.078 107.078 126.438 105.703 128.719C104.359 131.031 102.844 133.219 101.156 135.281C99.4688 137.406 97.4844 139.266 95.2031 140.859C92.8906 142.516 90.25 143.453 87.2812 143.672C87.0312 143.672 86.7812 143.672 86.5312 143.672C86.0625 143.703 85.5781 143.688 85.0781 143.625C84.8594 143.594 84.6562 143.562 84.4688 143.531C83.9062 143.469 83.3594 143.344 82.8281 143.156C81.3281 142.719 79.9844 141.922 78.7969 140.766C76.5469 138.328 75.2344 135.594 74.8594 132.562C74.4531 129.625 74.5 126.766 75 123.984C75.4375 121.203 76.1562 118.516 77.1562 115.922C78.125 113.297 79.375 110.797 80.9062 108.422C82.375 106.047 84.2031 103.891 86.3906 101.953C87.5156 100.984 88.7969 100.203 90.2344 99.6094C90.8281 99.3281 91.4688 99.125 92.1562 99C92.2812 98.9688 92.3906 98.9531 92.4844 98.9531C92.5781 98.9531 92.6562 98.9375 92.7188 98.9062C93.4375 98.8125 94.1875 98.8281 94.9688 98.9531C95.3438 99.0156 95.7188 99.125 96.0938 99.2812C96.1562 99.3125 96.2188 99.3438 96.2812 99.375C96.375 99.4375 96.4844 99.5 96.6094 99.5625C96.9219 99.7188 97.2031 99.9219 97.4531 100.172C98.1406 100.859 98.6094 101.609 98.8594 102.422C99.2344 104.047 99.2812 105.562 99 106.969C98.4688 109.75 97.5312 112.328 96.1875 114.703C94.875 117.109 93.2812 119.312 91.4062 121.312C89.5625 123.312 87.4375 124.969 85.0312 126.281ZM81.8906 117.562C80.8594 120.688 80.1719 123.844 79.8281 127.031C81.4531 126.656 82.9844 126.047 84.4219 125.203C86.6094 123.859 88.5312 122.188 90.1875 120.188C91.8438 118.219 93.2344 116.078 94.3594 113.766C95.5156 111.453 96.2656 109.078 96.6094 106.641C96.7344 105.391 96.6406 104.281 96.3281 103.312C96.3281 103.312 96.3281 103.297 96.3281 103.266C96.1406 102.828 95.8906 102.5 95.5781 102.281C95.5156 102.219 95.4375 102.172 95.3438 102.141C95.25 102.109 95.1719 102.062 95.1094 102C95.0469 102 94.9688 101.984 94.875 101.953C94.7812 101.922 94.6719 101.906 94.5469 101.906C94.2031 101.875 93.8281 101.906 93.4219 102C93.3281 102 93.2188 102.016 93.0938 102.047C92.9375 102.109 92.7969 102.156 92.6719 102.188C92.2969 102.281 91.9375 102.438 91.5938 102.656C90.625 103.156 89.7344 103.844 88.9219 104.719C87.2969 106.469 85.9062 108.469 84.75 110.719C83.625 112.906 82.6719 115.188 81.8906 117.562ZM113.203 119.297C113.047 122.234 112.953 125.172 112.922 128.109C112.922 128.172 112.922 128.25 112.922 128.344C112.922 128.406 112.922 128.469 112.922 128.531C113.359 126.188 113.875 123.859 114.469 121.547C115.156 118.641 116.125 115.797 117.375 113.016C118.031 111.641 118.938 110.375 120.094 109.219C120.688 108.625 121.406 108.188 122.25 107.906C122.656 107.781 123.094 107.703 123.562 107.672C123.656 107.672 123.766 107.672 123.891 107.672C124.203 107.672 124.516 107.688 124.828 107.719C124.953 107.75 125.094 107.781 125.25 107.812C125.562 107.875 125.859 107.953 126.141 108.047C126.266 108.109 126.375 108.156 126.469 108.188C126.812 108.312 127.109 108.484 127.359 108.703L127.922 109.125C128.047 109.219 128.156 109.312 128.25 109.406C128.281 109.469 128.328 109.531 128.391 109.594C128.453 109.625 128.5 109.672 128.531 109.734C128.656 109.859 128.766 109.984 128.859 110.109L129.234 110.625C130.141 112.125 130.75 113.656 131.062 115.219C131.719 118.312 132 121.375 131.906 124.406C131.906 125.906 131.891 127.406 131.859 128.906C131.828 130.375 131.812 131.828 131.812 133.266C131.812 134.703 131.906 136.109 132.094 137.484C132.188 138.141 132.328 138.766 132.516 139.359C132.734 139.953 133.016 140.422 133.359 140.766C133.484 140.922 133.656 141.047 133.875 141.141C134.125 141.203 134.375 141.25 134.625 141.281C135.094 141.312 135.594 141.156 136.125 140.812C137.156 140.062 138.078 139.062 138.891 137.812C140.422 135.312 141.688 132.672 142.688 129.891C143.719 127.078 144.547 124.234 145.172 121.359C145.203 121.234 145.266 121.141 145.359 121.078C145.484 120.984 145.625 120.953 145.781 120.984C145.906 121.016 146 121.094 146.062 121.219C146.125 121.312 146.156 121.422 146.156 121.547C146.125 121.547 146.109 121.562 146.109 121.594C145.359 124.5 144.531 127.375 143.625 130.219C143.156 131.625 142.656 133.031 142.125 134.438C141.562 135.844 140.922 137.219 140.203 138.562C139.516 139.969 138.547 141.234 137.297 142.359C136.609 142.984 135.734 143.359 134.672 143.484C134.516 143.484 134.344 143.469 134.156 143.438C134.094 143.438 134.016 143.438 133.922 143.438C133.891 143.438 133.859 143.438 133.828 143.438C133.609 143.438 133.406 143.391 133.219 143.297C132.969 143.234 132.719 143.156 132.469 143.062C132.281 142.969 132.094 142.844 131.906 142.688C131.875 142.688 131.844 142.672 131.812 142.641C131.594 142.484 131.406 142.312 131.25 142.125C131.219 142.094 131.172 142.047 131.109 141.984C130.984 141.859 130.875 141.734 130.781 141.609C130.719 141.484 130.641 141.375 130.547 141.281C130.359 141 130.203 140.719 130.078 140.438C130.078 140.406 130.078 140.391 130.078 140.391C129.891 140.016 129.734 139.625 129.609 139.219C129.453 138.844 129.328 138.453 129.234 138.047C128.859 136.484 128.625 134.938 128.531 133.406C128.344 130.656 128.25 127.953 128.25 125.297C128.25 124.984 128.25 124.688 128.25 124.406C128.219 123.844 128.203 123.266 128.203 122.672C128.172 120.328 128.047 118.031 127.828 115.781C127.703 114.406 127.406 113.141 126.938 111.984C126.469 110.797 125.641 110 124.453 109.594L123.562 109.406C123.25 109.375 122.938 109.391 122.625 109.453C122.031 109.578 121.453 109.828 120.891 110.203C119.797 111.047 118.906 112.141 118.219 113.484C116.875 116.078 115.875 118.828 115.219 121.734C114.562 124.641 114.094 127.562 113.812 130.5C113.438 133.438 113.25 136.406 113.25 139.406L113.203 141.703V142.312C113.172 142.406 113.156 142.516 113.156 142.641C113.156 142.672 113.141 142.719 113.109 142.781C113.109 142.844 113.109 142.891 113.109 142.922L113.062 143.016C113.031 143.078 113 143.156 112.969 143.25C112.938 143.312 112.906 143.375 112.875 143.438C112.844 143.5 112.75 143.594 112.594 143.719C112.469 143.844 112.297 143.953 112.078 144.047C111.891 144.141 111.703 144.172 111.516 144.141C111.078 144.141 110.703 143.984 110.391 143.672C110.359 143.609 110.312 143.562 110.25 143.531C110.219 143.469 110.188 143.422 110.156 143.391C110.156 143.359 110.141 143.344 110.109 143.344C110.109 143.312 110.094 143.297 110.062 143.297C110.062 143.266 110.062 143.25 110.062 143.25C110.062 143.219 110.062 143.203 110.062 143.203C110.062 143.203 110.062 143.219 110.062 143.25L110.016 143.109L109.922 142.875C109.859 142.719 109.812 142.547 109.781 142.359L109.594 141.75C109.25 140.188 108.984 138.672 108.797 137.203C108.484 134.172 108.266 131.156 108.141 128.156C108.016 125.156 108 122.141 108.094 119.109C108.156 116.078 108.375 113.031 108.75 109.969C109.094 106.938 109.703 103.891 110.578 100.828C110.828 100.141 111.25 99.6406 111.844 99.3281C112.438 99.0156 113.078 98.9531 113.766 99.1406C114.422 99.3594 114.906 99.75 115.219 100.312C115.531 100.875 115.625 101.5 115.5 102.188L115.453 102.234C114.234 107.734 113.484 113.422 113.203 119.297ZM146.016 142.266C145.141 141.297 144.516 140.266 144.141 139.172C143.422 136.984 143.078 134.844 143.109 132.75C143.141 130.656 143.344 128.609 143.719 126.609C144.438 122.547 145.688 118.688 147.469 115.031C149.219 111.281 151.531 107.891 154.406 104.859C155.906 103.359 157.578 102.078 159.422 101.016C161.328 99.9531 163.375 99.3281 165.562 99.1406C166.125 99.0781 166.672 99.0625 167.203 99.0938C167.391 99.0938 167.594 99.1094 167.812 99.1406C167.906 99.1406 167.984 99.1562 168.047 99.1875C168.109 99.1875 168.172 99.1875 168.234 99.1875C168.453 99.2188 168.672 99.2656 168.891 99.3281C170.109 99.6406 171.109 100.25 171.891 101.156C172.734 102.219 173.281 103.344 173.531 104.531C173.562 104.469 173.578 104.422 173.578 104.391C173.891 103.641 174.172 102.875 174.422 102.094C174.422 102.062 174.422 102.031 174.422 102C174.547 101.562 174.719 101.078 174.938 100.547C175.031 100.297 175.203 100 175.453 99.6562C175.453 99.6562 175.453 99.6406 175.453 99.6094C175.516 99.5469 175.609 99.4688 175.734 99.375C175.859 99.25 176.031 99.1406 176.25 99.0469C176.5 98.9531 176.828 98.9531 177.234 99.0469C177.453 99.0781 177.625 99.1406 177.75 99.2344C177.875 99.3281 178 99.4375 178.125 99.5625C178.25 99.75 178.359 99.9219 178.453 100.078C178.516 100.203 178.562 100.328 178.594 100.453C178.656 100.672 178.703 100.859 178.734 101.016C178.797 101.359 178.828 101.656 178.828 101.906C178.859 102.469 178.844 103.016 178.781 103.547C178.719 104.547 178.625 105.531 178.5 106.5C178.219 108.469 177.922 110.422 177.609 112.359L175.781 123.844C175.125 127.656 174.719 131.438 174.562 135.188C174.531 136.125 174.562 137.031 174.656 137.906C174.719 138.812 174.891 139.594 175.172 140.25C175.297 140.562 175.422 140.781 175.547 140.906C175.609 140.969 175.672 141.016 175.734 141.047C175.797 141.078 175.891 141.109 176.016 141.141C176.703 141.172 177.406 140.984 178.125 140.578C179.562 139.734 180.859 138.531 182.016 136.969C183.109 135.469 184.094 133.844 184.969 132.094C186.75 128.656 188.156 125.062 189.188 121.312C189.219 121.188 189.281 121.094 189.375 121.031C189.5 120.969 189.625 120.953 189.75 120.984C189.875 121.016 189.969 121.094 190.031 121.219C190.125 121.312 190.156 121.422 190.125 121.547C190.125 121.578 190.125 121.594 190.125 121.594C189.031 125.375 187.766 129.094 186.328 132.75C185.578 134.562 184.688 136.344 183.656 138.094C182.656 139.875 181.25 141.438 179.438 142.781C178.469 143.469 177.328 143.859 176.016 143.953C175.203 143.984 174.453 143.75 173.766 143.25C173.141 142.75 172.688 142.203 172.406 141.609C171.875 140.453 171.562 139.359 171.469 138.328C171.312 137.266 171.219 136.219 171.188 135.188C171.188 131.156 171.484 127.188 172.078 123.281C172.641 119.406 173.281 115.547 174 111.703C174.125 111.016 174.25 110.328 174.375 109.641C174.625 108.422 174.844 107.219 175.031 106.031C175.125 105.469 175.219 104.906 175.312 104.344C175.156 104.719 175 105.094 174.844 105.469C174.219 106.938 173.625 108.422 173.062 109.922C172.938 110.234 172.812 110.547 172.688 110.859C171.312 114.516 169.906 118.172 168.469 121.828C167.031 125.453 165.391 129.016 163.547 132.516C162.578 134.234 161.516 135.922 160.359 137.578C159.172 139.234 157.734 140.719 156.047 142.031C154.297 143.469 152.141 144.125 149.578 144C148.203 143.812 147.016 143.234 146.016 142.266ZM147.188 132.844C147.062 134.688 147.203 136.406 147.609 138C147.828 138.781 148.141 139.438 148.547 139.969C148.922 140.469 149.422 140.781 150.047 140.906C150.734 141.062 151.484 141.047 152.297 140.859C153.078 140.641 153.844 140.312 154.594 139.875C156.094 138.938 157.438 137.719 158.625 136.219C159.844 134.781 160.953 133.234 161.953 131.578C163.922 128.266 165.672 124.828 167.203 121.266C168.734 117.703 170.141 114.078 171.422 110.391C171.859 109.172 172.297 107.938 172.734 106.688C172.359 104.969 171.609 103.594 170.484 102.562C169.891 102.031 169.203 101.734 168.422 101.672C168.297 101.641 168.156 101.641 168 101.672C167.938 101.672 167.891 101.672 167.859 101.672C167.797 101.672 167.734 101.672 167.672 101.672C167.547 101.641 167.406 101.641 167.25 101.672C166.812 101.703 166.375 101.766 165.938 101.859C162.5 102.703 159.578 104.578 157.172 107.484C154.828 110.266 152.891 113.375 151.359 116.812C149.859 120.25 148.719 123.781 147.938 127.406C147.562 129.219 147.312 131.031 147.188 132.844ZM193.641 112.031C193.141 115.781 192.797 119.578 192.609 123.422C192.422 126.578 192.344 129.734 192.375 132.891C193.375 127.109 194.766 121.406 196.547 115.781C197.141 113.906 197.906 112.078 198.844 110.297C199.719 108.453 201.062 106.906 202.875 105.656C203.906 105.062 205 104.844 206.156 105C207.344 105.156 208.344 105.625 209.156 106.406C209.969 107.125 210.594 107.969 211.031 108.938C211.469 109.844 211.781 110.797 211.969 111.797C212 111.953 211.984 112.078 211.922 112.172C211.859 112.266 211.75 112.328 211.594 112.359C211.469 112.391 211.359 112.375 211.266 112.312C211.172 112.25 211.109 112.172 211.078 112.078L211.031 112.031C210.438 110.219 209.484 108.719 208.172 107.531C206.734 106.406 205.234 106.25 203.672 107.062C202.297 108.031 201.172 109.375 200.297 111.094C199.422 112.75 198.688 114.484 198.094 116.297C196.875 119.922 195.922 123.641 195.234 127.453C194.547 131.234 193.969 135.031 193.5 138.844C193.469 139.031 193.453 139.219 193.453 139.406C193.359 140.188 193.25 140.984 193.125 141.797C193.125 141.828 193.125 141.859 193.125 141.891C193.094 142.078 193.047 142.312 192.984 142.594C192.953 142.625 192.922 142.672 192.891 142.734C192.891 142.766 192.891 142.812 192.891 142.875C192.891 142.875 192.875 142.906 192.844 142.969C192.844 143 192.828 143.031 192.797 143.062C192.766 143.094 192.75 143.125 192.75 143.156C192.75 143.188 192.734 143.203 192.703 143.203C192.703 143.203 192.703 143.219 192.703 143.25C192.703 143.25 192.688 143.266 192.656 143.297C192.656 143.297 192.641 143.312 192.609 143.344C192.453 143.5 192.266 143.625 192.047 143.719C191.828 143.781 191.625 143.797 191.438 143.766C191.188 143.703 190.969 143.594 190.781 143.438C190.719 143.375 190.672 143.312 190.641 143.25C190.609 143.188 190.578 143.141 190.547 143.109C190.547 143.078 190.547 143.062 190.547 143.062L190.5 142.969L190.453 142.828L190.359 142.547L190.312 142.219L190.266 142.031L190.219 141.656C190.188 141.562 190.172 141.469 190.172 141.375C190.141 141.219 190.109 141.062 190.078 140.906C189.859 139.094 189.688 137.297 189.562 135.516C189.562 135.359 189.547 135.203 189.516 135.047C189.266 131.141 189.094 127.234 189 123.328C188.938 119.422 189 115.5 189.188 111.562C189.344 107.625 189.859 103.641 190.734 99.6094C190.922 98.8594 191.328 98.2969 191.953 97.9219C192.578 97.5156 193.281 97.3906 194.062 97.5469C194.812 97.7344 195.375 98.1406 195.75 98.7656C196.156 99.3906 196.281 100.078 196.125 100.828C196.094 100.922 196.062 101.031 196.031 101.156C194.906 104.594 194.109 108.219 193.641 112.031ZM217.734 142.266C216.859 141.297 216.234 140.266 215.859 139.172C215.141 136.984 214.797 134.844 214.828 132.75C214.859 130.656 215.062 128.609 215.438 126.609C216.156 122.547 217.406 118.688 219.188 115.031C220.938 111.281 223.25 107.891 226.125 104.859C227.625 103.359 229.297 102.078 231.141 101.016C233.047 99.9531 235.094 99.3281 237.281 99.1406C237.844 99.0781 238.391 99.0625 238.922 99.0938C239.109 99.0938 239.312 99.1094 239.531 99.1406C239.625 99.1406 239.703 99.1562 239.766 99.1875C239.828 99.1875 239.891 99.1875 239.953 99.1875C240.172 99.2188 240.391 99.2656 240.609 99.3281C241.828 99.6406 242.828 100.25 243.609 101.156C244.453 102.219 245 103.344 245.25 104.531C245.281 104.469 245.297 104.422 245.297 104.391C245.609 103.641 245.891 102.875 246.141 102.094C246.141 102.062 246.141 102.031 246.141 102C246.266 101.562 246.438 101.078 246.656 100.547C246.75 100.297 246.922 100 247.172 99.6562C247.172 99.6562 247.172 99.6406 247.172 99.6094C247.234 99.5469 247.328 99.4688 247.453 99.375C247.578 99.25 247.75 99.1406 247.969 99.0469C248.219 98.9531 248.547 98.9531 248.953 99.0469C249.172 99.0781 249.344 99.1406 249.469 99.2344C249.594 99.3281 249.719 99.4375 249.844 99.5625C249.969 99.75 250.078 99.9219 250.172 100.078C250.234 100.203 250.281 100.328 250.312 100.453C250.375 100.672 250.422 100.859 250.453 101.016C250.516 101.359 250.547 101.656 250.547 101.906C250.578 102.469 250.562 103.016 250.5 103.547C250.438 104.547 250.344 105.531 250.219 106.5C249.938 108.469 249.641 110.422 249.328 112.359L247.5 123.844C246.844 127.656 246.438 131.438 246.281 135.188C246.25 136.125 246.281 137.031 246.375 137.906C246.438 138.812 246.609 139.594 246.891 140.25C247.016 140.562 247.141 140.781 247.266 140.906C247.328 140.969 247.391 141.016 247.453 141.047C247.516 141.078 247.609 141.109 247.734 141.141C248.422 141.172 249.125 140.984 249.844 140.578C251.281 139.734 252.578 138.531 253.734 136.969C254.828 135.469 255.812 133.844 256.688 132.094C258.469 128.656 259.875 125.062 260.906 121.312C260.938 121.188 261 121.094 261.094 121.031C261.219 120.969 261.344 120.953 261.469 120.984C261.594 121.016 261.688 121.094 261.75 121.219C261.844 121.312 261.875 121.422 261.844 121.547C261.844 121.578 261.844 121.594 261.844 121.594C260.75 125.375 259.484 129.094 258.047 132.75C257.297 134.562 256.406 136.344 255.375 138.094C254.375 139.875 252.969 141.438 251.156 142.781C250.188 143.469 249.047 143.859 247.734 143.953C246.922 143.984 246.172 143.75 245.484 143.25C244.859 142.75 244.406 142.203 244.125 141.609C243.594 140.453 243.281 139.359 243.188 138.328C243.031 137.266 242.938 136.219 242.906 135.188C242.906 131.156 243.203 127.188 243.797 123.281C244.359 119.406 245 115.547 245.719 111.703C245.844 111.016 245.969 110.328 246.094 109.641C246.344 108.422 246.562 107.219 246.75 106.031C246.844 105.469 246.938 104.906 247.031 104.344C246.875 104.719 246.719 105.094 246.562 105.469C245.938 106.938 245.344 108.422 244.781 109.922C244.656 110.234 244.531 110.547 244.406 110.859C243.031 114.516 241.625 118.172 240.188 121.828C238.75 125.453 237.109 129.016 235.266 132.516C234.297 134.234 233.234 135.922 232.078 137.578C230.891 139.234 229.453 140.719 227.766 142.031C226.016 143.469 223.859 144.125 221.297 144C219.922 143.812 218.734 143.234 217.734 142.266ZM218.906 132.844C218.781 134.688 218.922 136.406 219.328 138C219.547 138.781 219.859 139.438 220.266 139.969C220.641 140.469 221.141 140.781 221.766 140.906C222.453 141.062 223.203 141.047 224.016 140.859C224.797 140.641 225.562 140.312 226.312 139.875C227.812 138.938 229.156 137.719 230.344 136.219C231.562 134.781 232.672 133.234 233.672 131.578C235.641 128.266 237.391 124.828 238.922 121.266C240.453 117.703 241.859 114.078 243.141 110.391C243.578 109.172 244.016 107.938 244.453 106.688C244.078 104.969 243.328 103.594 242.203 102.562C241.609 102.031 240.922 101.734 240.141 101.672C240.016 101.641 239.875 101.641 239.719 101.672C239.656 101.672 239.609 101.672 239.578 101.672C239.516 101.672 239.453 101.672 239.391 101.672C239.266 101.641 239.125 101.641 238.969 101.672C238.531 101.703 238.094 101.766 237.656 101.859C234.219 102.703 231.297 104.578 228.891 107.484C226.547 110.266 224.609 113.375 223.078 116.812C221.578 120.25 220.438 123.781 219.656 127.406C219.281 129.219 219.031 131.031 218.906 132.844ZM285.844 17.8125C285.125 17.9375 284.469 17.8125 283.875 17.4375C283.312 17.0625 282.953 16.5156 282.797 15.7969C282.703 15.0469 282.844 14.3906 283.219 13.8281C283.594 13.2656 284.141 12.9063 284.859 12.75C284.891 12.75 284.906 12.75 284.906 12.75C284.938 12.75 284.953 12.75 284.953 12.75C295.141 11.1562 305.344 9.71875 315.562 8.4375C325.125 7.25 334.703 6.21875 344.297 5.34375C344.297 5.21875 344.297 5.07813 344.297 4.92188C344.297 4.54688 344.297 4.15625 344.297 3.75V3.70312C344.297 3.04688 344.5 2.5 344.906 2.0625C345.344 1.625 345.875 1.39062 346.5 1.35938C347.156 1.39062 347.688 1.60938 348.094 2.01562C348.531 2.42187 348.766 2.95312 348.797 3.60938C348.797 3.60938 348.797 3.625 348.797 3.65625C348.797 3.9375 348.797 4.21875 348.797 4.5C348.797 4.65625 348.797 4.8125 348.797 4.96875C358.203 4.15625 367.641 3.64062 377.109 3.42188C382.266 3.32812 387.422 3.45312 392.578 3.79688C397.766 4.01562 402.859 4.90625 407.859 6.46875C407.984 6.5 408.078 6.57813 408.141 6.70312C408.203 6.82812 408.219 6.95313 408.188 7.07812C408.125 7.20312 408.031 7.29687 407.906 7.35938C407.812 7.39062 407.703 7.39062 407.578 7.35938H407.531C402.656 6.01563 397.641 5.3125 392.484 5.25C387.391 5.125 382.281 5.1875 377.156 5.4375C367.656 5.96875 358.188 6.8125 348.75 7.96875C348.656 10.2813 348.531 12.5781 348.375 14.8594C348.188 18.5781 347.953 22.2813 347.672 25.9688C347.141 33.3438 346.562 40.7031 345.938 48.0469C344.719 62.7969 343.422 77.5156 342.047 92.2031C340.672 106.922 339.203 121.625 337.641 136.312C336.891 143.688 336.078 151.031 335.203 158.344C334.766 162.031 334.297 165.703 333.797 169.359C333.578 171.203 333.312 173.047 333 174.891L332.578 177.609C332.516 177.828 332.469 178.047 332.438 178.266C332.312 178.953 332.094 179.703 331.781 180.516C331.719 180.734 331.578 180.875 331.359 180.938C331.172 181.031 330.984 181.047 330.797 180.984C330.609 180.891 330.469 180.75 330.375 180.562C330.281 180.375 330.266 180.188 330.328 180L330.422 179.812C330.609 179.156 330.781 178.406 330.938 177.562C330.938 177.5 330.953 177.422 330.984 177.328L331.359 174.609C331.609 172.797 331.844 170.969 332.062 169.125C332.5 165.469 332.906 161.812 333.281 158.156C334 150.812 334.688 143.469 335.344 136.125C336.656 121.406 337.875 106.688 339 91.9688C340.156 77.25 341.219 62.5156 342.188 47.7656C342.688 40.4219 343.141 33.0625 343.547 25.6875C343.734 22 343.906 18.3281 344.062 14.6719C344.156 12.6094 344.219 10.5625 344.25 8.53125C334.875 9.6875 325.5 11.0156 316.125 12.5156C306 14.1406 295.922 15.9063 285.891 17.8125H285.844ZM357.281 125.953C357.25 121.922 357.672 117.938 358.547 114C358.766 112.938 359.031 111.859 359.344 110.766C359.188 109.953 359.062 109.125 358.969 108.281C358.812 106.312 358.875 104.328 359.156 102.328C359.469 100.328 360.094 98.4219 361.031 96.6094C362.031 94.7656 363.422 93.2656 365.203 92.1094C367.016 91.0156 368.969 90.4375 371.062 90.375C373.125 90.1875 375.109 90.5625 377.016 91.5C378.891 92.5 380.375 93.875 381.469 95.625C382.531 97.3438 383.312 99.1562 383.812 101.062C384.781 104.906 385.188 108.781 385.031 112.688C384.938 116.562 384.469 120.406 383.625 124.219C383.344 125.375 383.031 126.531 382.688 127.688C384.406 127.375 386.109 126.953 387.797 126.422C391.422 125.266 394.734 123.547 397.734 121.266C397.828 121.172 397.938 121.141 398.062 121.172C398.188 121.172 398.297 121.219 398.391 121.312C398.484 121.438 398.516 121.562 398.484 121.688C398.484 121.812 398.438 121.906 398.344 121.969C395.281 124.469 391.891 126.359 388.172 127.641C386.359 128.297 384.5 128.797 382.594 129.141C382.531 129.141 382.469 129.156 382.406 129.188C382.344 129.188 382.281 129.188 382.219 129.188C381.562 131.281 380.75 133.328 379.781 135.328C378.906 137.109 377.797 138.797 376.453 140.391C375.109 142.078 373.281 143.281 370.969 144C370.344 144.156 369.734 144.219 369.141 144.188C368.984 144.188 368.828 144.188 368.672 144.188C368.266 144.188 367.875 144.156 367.5 144.094L366.656 143.906C366.438 143.875 366.234 143.828 366.047 143.766C365.984 143.734 365.906 143.703 365.812 143.672C365.344 143.547 364.906 143.359 364.5 143.109C364.406 143.078 364.312 143.031 364.219 142.969C362.156 141.688 360.641 140.031 359.672 138C358.734 136.031 358.109 134.031 357.797 132C357.453 129.969 357.281 127.953 357.281 125.953ZM377.391 134.016C378.172 132.578 378.875 131.078 379.5 129.516C379.125 129.516 378.766 129.516 378.422 129.516C378.328 129.516 378.234 129.5 378.141 129.469C377.984 129.469 377.812 129.469 377.625 129.469C377.312 129.469 377 129.438 376.688 129.375C372.594 128.812 369.078 127.078 366.141 124.172C364.766 122.797 363.594 121.266 362.625 119.578C362.156 121.703 361.859 123.859 361.734 126.047C361.484 129.734 361.953 133.172 363.141 136.359C363.797 137.891 364.75 139.078 366 139.922C366.094 139.984 366.188 140.047 366.281 140.109C366.5 140.234 366.734 140.344 366.984 140.438C367.047 140.469 367.109 140.5 367.172 140.531C367.297 140.562 367.406 140.594 367.5 140.625L368.062 140.766C368.312 140.828 368.562 140.859 368.812 140.859C368.938 140.891 369.078 140.906 369.234 140.906C369.609 140.938 369.953 140.922 370.266 140.859C371.703 140.547 373.031 139.719 374.25 138.375C375.438 137.094 376.484 135.641 377.391 134.016ZM361.078 102.656C360.859 103.938 360.766 105.234 360.797 106.547C361.328 105.172 361.969 103.812 362.719 102.469C363.156 101.719 363.766 101.234 364.547 101.016C365.328 100.797 366.109 100.891 366.891 101.297C367.641 101.734 368.125 102.344 368.344 103.125C368.562 103.906 368.469 104.688 368.062 105.469C368.031 105.562 367.984 105.641 367.922 105.703C366.078 108.547 364.656 111.75 363.656 115.312C363.531 115.75 363.406 116.203 363.281 116.672C363.25 116.766 363.219 116.875 363.188 117C364.219 119.25 365.594 121.25 367.312 123C369.938 125.719 373.125 127.359 376.875 127.922C377.156 127.984 377.453 128.016 377.766 128.016C377.922 128.016 378.078 128.031 378.234 128.062C378.328 128.062 378.438 128.062 378.562 128.062C378.906 128.094 379.25 128.109 379.594 128.109C379.688 128.078 379.766 128.062 379.828 128.062C379.891 128.062 379.953 128.062 380.016 128.062C380.547 126.625 381.016 125.172 381.422 123.703C382.391 120.047 383 116.344 383.25 112.594C383.375 110.719 383.375 108.844 383.25 106.969C383.125 105.094 382.828 103.266 382.359 101.484C381.922 99.6719 381.203 98 380.203 96.4688C379.203 94.9062 377.906 93.7188 376.312 92.9062C374.688 92.1562 372.969 91.875 371.156 92.0625C369.344 92.1875 367.688 92.7188 366.188 93.6562C364.719 94.625 363.562 95.9219 362.719 97.5469C361.875 99.1406 361.328 100.844 361.078 102.656ZM401.766 112.031C401.266 115.781 400.922 119.578 400.734 123.422C400.547 126.578 400.469 129.734 400.5 132.891C401.5 127.109 402.891 121.406 404.672 115.781C405.266 113.906 406.031 112.078 406.969 110.297C407.844 108.453 409.188 106.906 411 105.656C412.031 105.062 413.125 104.844 414.281 105C415.469 105.156 416.469 105.625 417.281 106.406C418.094 107.125 418.719 107.969 419.156 108.938C419.594 109.844 419.906 110.797 420.094 111.797C420.125 111.953 420.109 112.078 420.047 112.172C419.984 112.266 419.875 112.328 419.719 112.359C419.594 112.391 419.484 112.375 419.391 112.312C419.297 112.25 419.234 112.172 419.203 112.078L419.156 112.031C418.562 110.219 417.609 108.719 416.297 107.531C414.859 106.406 413.359 106.25 411.797 107.062C410.422 108.031 409.297 109.375 408.422 111.094C407.547 112.75 406.812 114.484 406.219 116.297C405 119.922 404.047 123.641 403.359 127.453C402.672 131.234 402.094 135.031 401.625 138.844C401.594 139.031 401.578 139.219 401.578 139.406C401.484 140.188 401.375 140.984 401.25 141.797C401.25 141.828 401.25 141.859 401.25 141.891C401.219 142.078 401.172 142.312 401.109 142.594C401.078 142.625 401.047 142.672 401.016 142.734C401.016 142.766 401.016 142.812 401.016 142.875C401.016 142.875 401 142.906 400.969 142.969C400.969 143 400.953 143.031 400.922 143.062C400.891 143.094 400.875 143.125 400.875 143.156C400.875 143.188 400.859 143.203 400.828 143.203C400.828 143.203 400.828 143.219 400.828 143.25C400.828 143.25 400.812 143.266 400.781 143.297C400.781 143.297 400.766 143.312 400.734 143.344C400.578 143.5 400.391 143.625 400.172 143.719C399.953 143.781 399.75 143.797 399.562 143.766C399.312 143.703 399.094 143.594 398.906 143.438C398.844 143.375 398.797 143.312 398.766 143.25C398.734 143.188 398.703 143.141 398.672 143.109C398.672 143.078 398.672 143.062 398.672 143.062L398.625 142.969L398.578 142.828L398.484 142.547L398.438 142.219L398.391 142.031L398.344 141.656C398.312 141.562 398.297 141.469 398.297 141.375C398.266 141.219 398.234 141.062 398.203 140.906C397.984 139.094 397.812 137.297 397.688 135.516C397.688 135.359 397.672 135.203 397.641 135.047C397.391 131.141 397.219 127.234 397.125 123.328C397.062 119.422 397.125 115.5 397.312 111.562C397.469 107.625 397.984 103.641 398.859 99.6094C399.047 98.8594 399.453 98.2969 400.078 97.9219C400.703 97.5156 401.406 97.3906 402.188 97.5469C402.938 97.7344 403.5 98.1406 403.875 98.7656C404.281 99.3906 404.406 100.078 404.25 100.828C404.219 100.922 404.188 101.031 404.156 101.156C403.031 104.594 402.234 108.219 401.766 112.031ZM471.984 121.219C472.109 121.281 472.172 121.375 472.172 121.5C472.203 121.625 472.188 121.75 472.125 121.875C467.75 129.375 463.031 136.672 457.969 143.766C455.469 147.297 452.828 150.719 450.047 154.031C449.391 157.812 448.797 161.578 448.266 165.328C449.266 165.859 450.188 166.484 451.031 167.203C454.5 170.391 456.922 174.188 458.297 178.594C459.859 182.875 460.469 187.328 460.125 191.953C460 194.297 459.281 196.578 457.969 198.797C457.25 199.922 456.25 200.812 454.969 201.469C453.719 202.125 452.391 202.391 450.984 202.266C449.453 202.141 448.156 201.547 447.094 200.484C446.125 199.453 445.422 198.359 444.984 197.203C444.109 194.922 443.578 192.656 443.391 190.406C442.953 185.938 442.875 181.516 443.156 177.141C443.375 173.484 443.688 169.844 444.094 166.219L443.578 166.125L442.828 166.078C442.734 166.047 442.641 166.031 442.547 166.031C442.422 166.031 442.266 166.016 442.078 165.984H441.234C440.953 165.984 440.641 165.953 440.297 165.891C440.141 165.859 439.938 165.812 439.688 165.75C439.594 165.719 439.453 165.641 439.266 165.516C439.078 165.391 438.922 165.172 438.797 164.859C438.703 164.609 438.672 164.391 438.703 164.203C438.734 164.016 438.766 163.859 438.797 163.734C438.828 163.734 438.844 163.719 438.844 163.688C438.938 163.469 439.031 163.297 439.125 163.172C439.344 162.891 439.547 162.641 439.734 162.422C440.578 161.484 441.422 160.594 442.266 159.75C442.953 159.062 443.625 158.375 444.281 157.688C444.469 157.5 444.656 157.297 444.844 157.078C445 156.891 445.156 156.719 445.312 156.562C445.594 154.719 445.875 152.891 446.156 151.078C447.5 142.484 449.016 133.922 450.703 125.391L453.141 112.594C453.547 110.469 453.938 108.359 454.312 106.266C454.312 106.234 454.312 106.203 454.312 106.172C454.312 106.172 454.312 106.156 454.312 106.125C453.688 107.688 453.062 109.266 452.438 110.859C451.094 114.516 449.688 118.172 448.219 121.828C446.781 125.453 445.141 129.016 443.297 132.516C442.359 134.234 441.297 135.922 440.109 137.578C438.953 139.234 437.516 140.719 435.797 142.031C434.047 143.469 431.891 144.125 429.328 144C427.953 143.812 426.781 143.234 425.812 142.266C424.906 141.297 424.266 140.266 423.891 139.172C423.172 136.984 422.844 134.844 422.906 132.75C422.906 130.656 423.094 128.609 423.469 126.609C424.219 122.547 425.484 118.688 427.266 115.031C428.984 111.281 431.297 107.891 434.203 104.859C435.672 103.359 437.344 102.078 439.219 101.016C441.094 99.9531 443.125 99.3281 445.312 99.1406C445.875 99.0781 446.422 99.0625 446.953 99.0938C447.141 99.0938 447.344 99.1094 447.562 99.1406C447.656 99.1406 447.734 99.1406 447.797 99.1406C447.859 99.1719 447.922 99.1875 447.984 99.1875C448.203 99.2188 448.438 99.2656 448.688 99.3281C449.875 99.6406 450.875 100.25 451.688 101.156C452.531 102.219 453.078 103.344 453.328 104.531C453.328 104.469 453.344 104.422 453.375 104.391C453.656 103.641 453.922 102.875 454.172 102.094C454.172 102.062 454.172 102.031 454.172 102C454.328 101.562 454.5 101.078 454.688 100.547C454.719 100.484 454.734 100.438 454.734 100.406C454.734 100.406 454.734 100.391 454.734 100.359C454.734 99.6094 455 98.9688 455.531 98.4375C456.094 97.9062 456.75 97.6406 457.5 97.6406C457.906 97.6406 458.312 97.7344 458.719 97.9219C458.906 98.0156 459.047 98.1094 459.141 98.2031C459.266 98.2656 459.375 98.3438 459.469 98.4375C459.469 98.4375 459.484 98.4531 459.516 98.4844C459.578 98.5469 459.641 98.625 459.703 98.7188C459.766 98.7812 459.828 98.8594 459.891 98.9531C459.953 99.0156 459.984 99.0469 459.984 99.0469C460.047 99.1719 460.109 99.2969 460.172 99.4219C460.203 99.5469 460.219 99.6406 460.219 99.7031C460.25 99.7656 460.281 99.8125 460.312 99.8438C460.312 99.875 460.312 99.9062 460.312 99.9375C460.344 100 460.359 100.078 460.359 100.172C460.391 100.234 460.406 100.281 460.406 100.312C460.406 100.5 460.422 100.641 460.453 100.734C460.453 100.891 460.453 101.016 460.453 101.109C460.422 101.516 460.391 101.859 460.359 102.141C460.297 102.766 460.219 103.359 460.125 103.922C459.969 105.047 459.781 106.141 459.562 107.203C459.125 109.359 458.688 111.5 458.25 113.625L455.484 126.375C453.766 134.375 452.156 142.406 450.656 150.469C452.75 148 454.781 145.469 456.75 142.875C461.938 135.938 466.797 128.766 471.328 121.359C471.391 121.266 471.484 121.203 471.609 121.172C471.734 121.141 471.859 121.156 471.984 121.219ZM451.172 110.391C451.609 109.172 452.062 107.938 452.531 106.688C452.125 104.969 451.359 103.594 450.234 102.562C449.641 102.031 448.953 101.734 448.172 101.672C448.047 101.641 447.906 101.641 447.75 101.672C447.719 101.672 447.672 101.672 447.609 101.672C447.547 101.672 447.484 101.672 447.422 101.672C447.297 101.641 447.156 101.641 447 101.672C446.562 101.703 446.125 101.766 445.688 101.859C442.25 102.703 439.344 104.578 436.969 107.484C434.594 110.266 432.641 113.375 431.109 116.812C429.609 120.25 428.469 123.781 427.688 127.406C427.312 129.219 427.062 131.031 426.938 132.844C426.812 134.688 426.953 136.406 427.359 138C427.578 138.781 427.891 139.438 428.297 139.969C428.703 140.469 429.203 140.781 429.797 140.906C430.484 141.062 431.234 141.047 432.047 140.859C432.828 140.641 433.594 140.312 434.344 139.875C435.844 138.938 437.203 137.719 438.422 136.219C439.609 134.781 440.703 133.234 441.703 131.578C443.672 128.266 445.422 124.828 446.953 121.266C448.484 117.703 449.891 114.078 451.172 110.391ZM444.328 164.016C444.484 162.641 444.656 161.281 444.844 159.938C444.469 160.344 444.094 160.75 443.719 161.156C442.875 162.031 442.078 162.906 441.328 163.781C441.328 163.781 441.312 163.797 441.281 163.828C441.281 163.828 441.297 163.828 441.328 163.828H442.078C442.266 163.828 442.469 163.828 442.688 163.828C442.781 163.859 442.875 163.875 442.969 163.875L443.859 163.922L444.328 164.016ZM449.484 168.984C448.984 168.578 448.469 168.203 447.938 167.859C447.531 171.016 447.203 174.188 446.953 177.375C446.578 181.656 446.547 185.891 446.859 190.078C447.016 192.172 447.422 194.125 448.078 195.938C448.422 196.844 448.875 197.578 449.438 198.141C449.938 198.672 450.547 198.984 451.266 199.078C451.484 199.078 451.734 199.062 452.016 199.031C452.172 199.031 452.328 199.031 452.484 199.031C452.609 198.969 452.734 198.938 452.859 198.938C453.109 198.875 453.359 198.781 453.609 198.656C453.859 198.531 454.094 198.391 454.312 198.234C454.406 198.141 454.5 198.062 454.594 198C454.688 197.906 454.781 197.812 454.875 197.719C455.062 197.531 455.25 197.312 455.438 197.062C456.406 195.531 457 193.734 457.219 191.672C457.594 187.547 457.125 183.469 455.812 179.438C454.562 175.312 452.453 171.828 449.484 168.984ZM478.172 101.016C476.234 107.328 474.844 113.812 474 120.469C473.562 123.75 473.328 127.047 473.297 130.359C473.297 132.016 473.391 133.656 473.578 135.281C473.766 136.906 474.188 138.406 474.844 139.781C475.188 140.438 475.625 140.938 476.156 141.281C476.25 141.375 476.359 141.438 476.484 141.469C476.516 141.469 476.547 141.484 476.578 141.516C476.609 141.516 476.641 141.516 476.672 141.516C476.766 141.578 476.891 141.609 477.047 141.609C477.359 141.703 477.672 141.719 477.984 141.656C478.609 141.5 479.203 141.156 479.766 140.625C480.359 140.094 480.875 139.5 481.312 138.844C483.094 136.094 484.562 133.141 485.719 129.984C488.031 123.672 489.828 117.203 491.109 110.578L492.141 105.609L492.656 103.125C492.688 103.062 492.703 103 492.703 102.938C492.891 102.156 493.125 101.359 493.406 100.547C493.406 100.484 493.422 100.422 493.453 100.359C493.484 100.266 493.516 100.172 493.547 100.078C493.609 99.9531 493.703 99.8125 493.828 99.6562C493.828 99.625 493.828 99.6094 493.828 99.6094C493.859 99.5781 493.875 99.5625 493.875 99.5625C493.906 99.5312 493.922 99.5 493.922 99.4688C494.016 99.375 494.109 99.2969 494.203 99.2344L494.344 99.1406C494.438 99.0469 494.562 98.9844 494.719 98.9531C494.875 98.8906 495.016 98.8594 495.141 98.8594C495.266 98.8281 495.438 98.8438 495.656 98.9062C495.875 98.9375 496.062 99.0156 496.219 99.1406C496.375 99.2656 496.469 99.3438 496.5 99.375C496.625 99.5312 496.734 99.6875 496.828 99.8438C496.891 100 496.938 100.156 496.969 100.312C497.031 100.625 497.062 100.891 497.062 101.109C497.094 101.328 497.109 101.516 497.109 101.672C497.109 101.766 497.109 101.859 497.109 101.953C497.109 102.859 497.078 103.734 497.016 104.578C496.922 106.203 496.797 107.797 496.641 109.359C496.641 109.453 496.641 109.547 496.641 109.641C496.453 111.484 496.281 113.312 496.125 115.125C495.594 119.969 495.219 124.781 495 129.562C494.906 131.188 494.906 132.812 495 134.438C495.062 136.062 495.297 137.562 495.703 138.938C495.922 139.656 496.219 140.234 496.594 140.672C496.938 141.078 497.391 141.297 497.953 141.328C498.516 141.391 499.109 141.234 499.734 140.859C500.359 140.484 500.938 140 501.469 139.406C502.531 138.219 503.453 136.891 504.234 135.422C505.016 133.984 505.719 132.484 506.344 130.922C507.594 127.828 508.578 124.641 509.297 121.359C509.328 121.203 509.391 121.094 509.484 121.031C509.609 120.969 509.734 120.953 509.859 120.984C509.984 121.016 510.078 121.094 510.141 121.219C510.234 121.312 510.266 121.422 510.234 121.547C509.391 124.828 508.438 128.078 507.375 131.297C506.375 134.547 504.875 137.656 502.875 140.625C502.344 141.344 501.688 142 500.906 142.594C500.125 143.25 499.156 143.625 498 143.719C496.781 143.781 495.703 143.406 494.766 142.594C493.953 141.812 493.359 140.969 492.984 140.062C492.234 138.281 491.75 136.516 491.531 134.766C491.312 133.016 491.172 131.281 491.109 129.562C491.047 124.156 491.391 118.844 492.141 113.625L489.938 120.75C489 123.969 487.969 127.188 486.844 130.406C485.781 133.625 484.344 136.719 482.531 139.688C482.062 140.406 481.5 141.094 480.844 141.75C480.188 142.438 479.359 142.938 478.359 143.25C477.266 143.5 476.234 143.359 475.266 142.828C474.359 142.266 473.672 141.562 473.203 140.719C472.328 139.031 471.75 137.328 471.469 135.609C471.156 133.891 470.953 132.172 470.859 130.453C470.672 127.016 470.656 123.594 470.812 120.188C471.125 113.406 471.781 106.594 472.781 99.75C472.906 98.9688 473.266 98.3594 473.859 97.9219C474.453 97.4844 475.141 97.3125 475.922 97.4062C476.703 97.5312 477.312 97.8906 477.75 98.4844C478.188 99.0781 478.359 99.7656 478.266 100.547C478.234 100.672 478.203 100.812 478.172 100.969V101.016ZM510.141 142.266C509.266 141.297 508.641 140.266 508.266 139.172C507.547 136.984 507.203 134.844 507.234 132.75C507.266 130.656 507.469 128.609 507.844 126.609C508.562 122.547 509.812 118.688 511.594 115.031C513.344 111.281 515.656 107.891 518.531 104.859C520.031 103.359 521.703 102.078 523.547 101.016C525.453 99.9531 527.5 99.3281 529.688 99.1406C530.25 99.0781 530.797 99.0625 531.328 99.0938C531.516 99.0938 531.719 99.1094 531.938 99.1406C532.031 99.1406 532.109 99.1562 532.172 99.1875C532.234 99.1875 532.297 99.1875 532.359 99.1875C532.578 99.2188 532.797 99.2656 533.016 99.3281C534.234 99.6406 535.234 100.25 536.016 101.156C536.859 102.219 537.406 103.344 537.656 104.531C537.688 104.469 537.703 104.422 537.703 104.391C538.016 103.641 538.297 102.875 538.547 102.094C538.547 102.062 538.547 102.031 538.547 102C538.672 101.562 538.844 101.078 539.062 100.547C539.156 100.297 539.328 100 539.578 99.6562C539.578 99.6562 539.578 99.6406 539.578 99.6094C539.641 99.5469 539.734 99.4688 539.859 99.375C539.984 99.25 540.156 99.1406 540.375 99.0469C540.625 98.9531 540.953 98.9531 541.359 99.0469C541.578 99.0781 541.75 99.1406 541.875 99.2344C542 99.3281 542.125 99.4375 542.25 99.5625C542.375 99.75 542.484 99.9219 542.578 100.078C542.641 100.203 542.688 100.328 542.719 100.453C542.781 100.672 542.828 100.859 542.859 101.016C542.922 101.359 542.953 101.656 542.953 101.906C542.984 102.469 542.969 103.016 542.906 103.547C542.844 104.547 542.75 105.531 542.625 106.5C542.344 108.469 542.047 110.422 541.734 112.359L539.906 123.844C539.25 127.656 538.844 131.438 538.688 135.188C538.656 136.125 538.688 137.031 538.781 137.906C538.844 138.812 539.016 139.594 539.297 140.25C539.422 140.562 539.547 140.781 539.672 140.906C539.734 140.969 539.797 141.016 539.859 141.047C539.922 141.078 540.016 141.109 540.141 141.141C540.828 141.172 541.531 140.984 542.25 140.578C543.688 139.734 544.984 138.531 546.141 136.969C547.234 135.469 548.219 133.844 549.094 132.094C550.875 128.656 552.281 125.062 553.312 121.312C553.344 121.188 553.406 121.094 553.5 121.031C553.625 120.969 553.75 120.953 553.875 120.984C554 121.016 554.094 121.094 554.156 121.219C554.25 121.312 554.281 121.422 554.25 121.547C554.25 121.578 554.25 121.594 554.25 121.594C553.156 125.375 551.891 129.094 550.453 132.75C549.703 134.562 548.812 136.344 547.781 138.094C546.781 139.875 545.375 141.438 543.562 142.781C542.594 143.469 541.453 143.859 540.141 143.953C539.328 143.984 538.578 143.75 537.891 143.25C537.266 142.75 536.812 142.203 536.531 141.609C536 140.453 535.688 139.359 535.594 138.328C535.438 137.266 535.344 136.219 535.312 135.188C535.312 131.156 535.609 127.188 536.203 123.281C536.766 119.406 537.406 115.547 538.125 111.703C538.25 111.016 538.375 110.328 538.5 109.641C538.75 108.422 538.969 107.219 539.156 106.031C539.25 105.469 539.344 104.906 539.438 104.344C539.281 104.719 539.125 105.094 538.969 105.469C538.344 106.938 537.75 108.422 537.188 109.922C537.062 110.234 536.938 110.547 536.812 110.859C535.438 114.516 534.031 118.172 532.594 121.828C531.156 125.453 529.516 129.016 527.672 132.516C526.703 134.234 525.641 135.922 524.484 137.578C523.297 139.234 521.859 140.719 520.172 142.031C518.422 143.469 516.266 144.125 513.703 144C512.328 143.812 511.141 143.234 510.141 142.266ZM511.312 132.844C511.188 134.688 511.328 136.406 511.734 138C511.953 138.781 512.266 139.438 512.672 139.969C513.047 140.469 513.547 140.781 514.172 140.906C514.859 141.062 515.609 141.047 516.422 140.859C517.203 140.641 517.969 140.312 518.719 139.875C520.219 138.938 521.562 137.719 522.75 136.219C523.969 134.781 525.078 133.234 526.078 131.578C528.047 128.266 529.797 124.828 531.328 121.266C532.859 117.703 534.266 114.078 535.547 110.391C535.984 109.172 536.422 107.938 536.859 106.688C536.484 104.969 535.734 103.594 534.609 102.562C534.016 102.031 533.328 101.734 532.547 101.672C532.422 101.641 532.281 101.641 532.125 101.672C532.062 101.672 532.016 101.672 531.984 101.672C531.922 101.672 531.859 101.672 531.797 101.672C531.672 101.641 531.531 101.641 531.375 101.672C530.938 101.703 530.5 101.766 530.062 101.859C526.625 102.703 523.703 104.578 521.297 107.484C518.953 110.266 517.016 113.375 515.484 116.812C513.984 120.25 512.844 123.781 512.062 127.406C511.688 129.219 511.438 131.031 511.312 132.844ZM565.312 61.5938C564.25 66.9688 563.25 72.3594 562.312 77.7656C561.25 84.0156 560.25 90.2812 559.312 96.5625C565.844 96.6562 572.344 96.2344 578.812 95.2969C578.938 95.2969 579.047 95.3438 579.141 95.4375C579.266 95.5 579.344 95.5938 579.375 95.7188C579.375 95.8438 579.344 95.9688 579.281 96.0938C579.219 96.1875 579.125 96.2344 579 96.2344C572.406 97.4219 565.766 98.1094 559.078 98.2969C558.484 102.297 557.922 106.312 557.391 110.344C555.953 121.25 554.922 132.172 554.297 143.109C553.953 148.609 553.891 154.078 554.109 159.516C554.234 162.266 554.516 164.969 554.953 167.625C555.203 168.969 555.531 170.266 555.938 171.516C556.375 172.797 556.984 173.891 557.766 174.797H557.812C557.938 174.953 558 175.125 558 175.312C558 175.5 557.938 175.672 557.812 175.828C557.656 175.953 557.484 176.016 557.297 176.016C557.109 176.016 556.938 175.953 556.781 175.828C555.719 174.672 554.953 173.406 554.484 172.031C553.984 170.688 553.594 169.328 553.312 167.953C552.75 165.203 552.375 162.438 552.188 159.656C551.812 154.125 551.703 148.594 551.859 143.062C552.203 132 552.938 120.969 554.062 109.969C554.438 106.094 554.859 102.234 555.328 98.3906C553.234 98.4219 551.141 98.4375 549.047 98.4375C547.734 98.4375 546.422 98.4219 545.109 98.3906C543.078 98.3906 541.078 98.3906 539.109 98.3906C538.766 98.3906 538.484 98.2812 538.266 98.0625C538.016 97.8125 537.875 97.5156 537.844 97.1719C537.844 96.8281 537.969 96.5469 538.219 96.3281C538.438 96.0781 538.719 95.9531 539.062 95.9531C539.062 95.9531 539.078 95.9531 539.109 95.9531C541.141 96.0156 543.156 96.0938 545.156 96.1875C546.469 96.25 547.781 96.2969 549.094 96.3281C551.25 96.4219 553.391 96.4844 555.516 96.5156C556.297 90.0469 557.141 83.5781 558.047 77.1094C558.828 71.6406 559.688 66.1875 560.625 60.75C561.062 58 561.547 55.2656 562.078 52.5469C562.578 49.8281 563.172 47.0781 563.859 44.2969C564.078 43.5781 564.484 43.0469 565.078 42.7031C565.672 42.3281 566.344 42.2344 567.094 42.4219C567.812 42.6094 568.344 43.0156 568.688 43.6406C569.031 44.2344 569.125 44.8906 568.969 45.6094C568.969 45.6406 568.969 45.6562 568.969 45.6562C568.969 45.6875 568.969 45.7031 568.969 45.7031H568.922C568.234 48.2656 567.594 50.8906 567 53.5781C566.406 56.2344 565.844 58.9062 565.312 61.5938ZM570.188 125.953C570.156 121.922 570.578 117.938 571.453 114C571.672 112.938 571.938 111.859 572.25 110.766C572.094 109.953 571.969 109.125 571.875 108.281C571.719 106.312 571.781 104.328 572.062 102.328C572.375 100.328 573 98.4219 573.938 96.6094C574.938 94.7656 576.328 93.2656 578.109 92.1094C579.922 91.0156 581.875 90.4375 583.969 90.375C586.031 90.1875 588.016 90.5625 589.922 91.5C591.797 92.5 593.281 93.875 594.375 95.625C595.438 97.3438 596.219 99.1562 596.719 101.062C597.688 104.906 598.094 108.781 597.938 112.688C597.844 116.562 597.375 120.406 596.531 124.219C596.25 125.375 595.938 126.531 595.594 127.688C597.312 127.375 599.016 126.953 600.703 126.422C604.328 125.266 607.641 123.547 610.641 121.266C610.734 121.172 610.844 121.141 610.969 121.172C611.094 121.172 611.203 121.219 611.297 121.312C611.391 121.438 611.422 121.562 611.391 121.688C611.391 121.812 611.344 121.906 611.25 121.969C608.188 124.469 604.797 126.359 601.078 127.641C599.266 128.297 597.406 128.797 595.5 129.141C595.438 129.141 595.375 129.156 595.312 129.188C595.25 129.188 595.188 129.188 595.125 129.188C594.469 131.281 593.656 133.328 592.688 135.328C591.812 137.109 590.703 138.797 589.359 140.391C588.016 142.078 586.188 143.281 583.875 144C583.25 144.156 582.641 144.219 582.047 144.188C581.891 144.188 581.734 144.188 581.578 144.188C581.172 144.188 580.781 144.156 580.406 144.094L579.562 143.906C579.344 143.875 579.141 143.828 578.953 143.766C578.891 143.734 578.812 143.703 578.719 143.672C578.25 143.547 577.812 143.359 577.406 143.109C577.312 143.078 577.219 143.031 577.125 142.969C575.062 141.688 573.547 140.031 572.578 138C571.641 136.031 571.016 134.031 570.703 132C570.359 129.969 570.188 127.953 570.188 125.953ZM590.297 134.016C591.078 132.578 591.781 131.078 592.406 129.516C592.031 129.516 591.672 129.516 591.328 129.516C591.234 129.516 591.141 129.5 591.047 129.469C590.891 129.469 590.719 129.469 590.531 129.469C590.219 129.469 589.906 129.438 589.594 129.375C585.5 128.812 581.984 127.078 579.047 124.172C577.672 122.797 576.5 121.266 575.531 119.578C575.062 121.703 574.766 123.859 574.641 126.047C574.391 129.734 574.859 133.172 576.047 136.359C576.703 137.891 577.656 139.078 578.906 139.922C579 139.984 579.094 140.047 579.188 140.109C579.406 140.234 579.641 140.344 579.891 140.438C579.953 140.469 580.016 140.5 580.078 140.531C580.203 140.562 580.312 140.594 580.406 140.625L580.969 140.766C581.219 140.828 581.469 140.859 581.719 140.859C581.844 140.891 581.984 140.906 582.141 140.906C582.516 140.938 582.859 140.922 583.172 140.859C584.609 140.547 585.938 139.719 587.156 138.375C588.344 137.094 589.391 135.641 590.297 134.016ZM573.984 102.656C573.766 103.938 573.672 105.234 573.703 106.547C574.234 105.172 574.875 103.812 575.625 102.469C576.062 101.719 576.672 101.234 577.453 101.016C578.234 100.797 579.016 100.891 579.797 101.297C580.547 101.734 581.031 102.344 581.25 103.125C581.469 103.906 581.375 104.688 580.969 105.469C580.938 105.562 580.891 105.641 580.828 105.703C578.984 108.547 577.562 111.75 576.562 115.312C576.438 115.75 576.312 116.203 576.188 116.672C576.156 116.766 576.125 116.875 576.094 117C577.125 119.25 578.5 121.25 580.219 123C582.844 125.719 586.031 127.359 589.781 127.922C590.062 127.984 590.359 128.016 590.672 128.016C590.828 128.016 590.984 128.031 591.141 128.062C591.234 128.062 591.344 128.062 591.469 128.062C591.812 128.094 592.156 128.109 592.5 128.109C592.594 128.078 592.672 128.062 592.734 128.062C592.797 128.062 592.859 128.062 592.922 128.062C593.453 126.625 593.922 125.172 594.328 123.703C595.297 120.047 595.906 116.344 596.156 112.594C596.281 110.719 596.281 108.844 596.156 106.969C596.031 105.094 595.734 103.266 595.266 101.484C594.828 99.6719 594.109 98 593.109 96.4688C592.109 94.9062 590.812 93.7188 589.219 92.9062C587.594 92.1562 585.875 91.875 584.062 92.0625C582.25 92.1875 580.594 92.7188 579.094 93.6562C577.625 94.625 576.469 95.9219 575.625 97.5469C574.781 99.1406 574.234 100.844 573.984 102.656Z" fill="#5C7361"/>
</svg>
